# xmcd
#
# Track frame offsets: 
#        150
#        15957
#        29964
#        47357
#        63003
#        80029
#        94220
#        111505
#        129334
#        145633
#        159875
#        174519
#        193711
#
# Disc length: 2913 seconds
#
# Revision: 1
# Processed by: cddbd v1.5.2PL0 Copyright (c) Steve Scherf et al.
# Submitted via: ExactAudioCopy v0.90b4
#
DISCID=a30b5f0d
DTITLE=Dr. Kolbe and Frl. Schmitz - Premiere
DYEAR=2005
DGENRE=Folk
TTITLE0=Mer speele de Bluus
TTITLE1=Vorm Door Steher Räg
TTITLE2=En klaane rode Gockel
TTITLE3=Der Zimmergesell und die Gräfin
TTITLE4=Es ist ein harter Schluß
TTITLE5=Aus ist mein junges Leben
TTITLE6=Uff Deiwel kumm raus
TTITLE7=Haam zu dir
TTITLE8=De gude alde Franz
TTITLE9=Elefante
TTITLE10=Oh Champs-Elysées
TTITLE11=Dr. Kolbe and Frl. Schmitz Räg
TTITLE12=Hau di in Gaatsch
EXTD=
EXTT0=
EXTT1=
EXTT2=
EXTT3=
EXTT4=
EXTT5=
EXTT6=
EXTT7=
EXTT8=
EXTT9=
EXTT10=
EXTT11=
EXTT12=
PLAYORDER=
